# xmcd
#
# Track frame offsets:
#	182
#	13792
#	30307
#	47860
#	62067
#	81437
#	98392
#	115027
#	129372
#	145867
#
# Disc length: 2157 seconds
#
# Revision: 0
# Processed by: cddbd v1.4PL0 Copyright (c) Steve Scherf et al.
# Submitted via: audiograbber 1.80.04
#
DISCID=78086b0a
DTITLE=Matraca Berg - Lying To The Moon
DYEAR=1990
DGENRE=
TTITLE0=The Things You Left Undone
TTITLE1=I Got It Bad
TTITLE2=Lying To The Moon
TTITLE3=I Must Have Been Crazy
TTITLE4=You Are The Storm
TTITLE5=Calico Plains
TTITLE6=Appalachian Rain
TTITLE7=Baby, Walk On
TTITLE8=Alice In The Looking Glass
TTITLE9=Dancin' On The Wire
EXTD=
EXTT0=
EXTT1=
EXTT2=
EXTT3=
EXTT4=
EXTT5=
EXTT6=
EXTT7=
EXTT8=
EXTT9=
PLAYORDER=
